<?xml version="1.0" encoding="utf-8"?><svg viewBox="0 0 512 512" xmlns="http://www.w3.org/2000/svg" xmlns:xlink="http://www.w3.org/1999/xlink"><style>:root>svg{display:none}:root>svg:target{display:block}</style><svg viewBox="0 0 24 24" id="facebook" xmlns="http://www.w3.org/2000/svg"><path d="M15.997 3.985h2.191V.169C17.81.117 16.51 0 14.996 0c-3.159 0-5.323 1.987-5.323 5.639V9H6.187v4.266h3.486V24h4.274V13.267h3.345l.531-4.266h-3.877V6.062c.001-1.233.333-2.077 2.051-2.077z"/></svg><svg viewBox="0 0 511.991 511.991" id="favicon" xmlns="http://www.w3.org/2000/svg"><path d="M126.1 260.719c-6.438 8.797-12.523 18.875-17.914 30.453-2.484 5.328-.18 11.672 5.156 14.156 1.453.672 2.984 1 4.492 1 4.016 0 7.859-2.281 9.664-6.156 5.125-11.016 11.133-20.984 17.976-29.891l-19.374-9.562z" fill="#ccd1d9"/><path d="M467.508 312.42c-4.266 0-8.312-2.594-9.938-6.826l-27.547-71.562c-2.109-5.5.625-11.656 6.125-13.766 5.484-2.125 11.641.625 13.766 6.109l27.547 71.578c2.109 5.484-.625 11.639-6.125 13.764-1.25.484-2.547.703-3.828.703z" fill="#e6e9ed"/><path d="M85.882 361.67c-5.883 0-10.648-4.766-10.648-10.641V229c0-5.891 4.766-10.656 10.648-10.656S96.538 223.109 96.538 229v122.029c0 5.875-4.773 10.641-10.656 10.641z" fill="#ccd1d9"/><path d="M374.041 340.373H172.622a10.655 10.655 0 01-10.46-8.656L150.982 273 27.907 212.251a10.635 10.635 0 01-4.758-4.656L1.181 164.971a10.645 10.645 0 01.516-10.64 10.683 10.683 0 019.484-4.875l212.433 10.593 169.192-32.546a10.693 10.693 0 019.547 2.938l63.905 63.921a10.627 10.627 0 011.359 13.406l-84.701 127.841a10.674 10.674 0 01-8.875 4.764z" fill="#ed5564"/><path d="M126.327 260.719l-.031.109L150.983 273l11.18 58.717a10.654 10.654 0 0010.46 8.656h119.732c40.968-22.828 66.452-66.42 66.452-66.42l-138.49-96.764-93.99 83.53z" fill="#ccd1d9"/><path d="M160.451 361.67c5.882 0 10.656-4.766 10.656-10.656 0-5.875-4.773-10.641-10.656-10.641h-.766a73.797 73.797 0 00-4.562-17.031l.664-.375c5.094-2.953 6.844-9.469 3.898-14.562-2.938-5.092-9.453-6.826-14.555-3.889l-.688.391a75.6 75.6 0 00-12.445-12.438l.398-.703c2.938-5.094 1.195-11.609-3.906-14.547-5.094-2.938-11.609-1.203-14.547 3.906l-.382.656a74.837 74.837 0 00-17.023-4.562v-.766c0-5.875-4.773-10.656-10.656-10.656-5.883 0-10.648 4.781-10.648 10.656v.766a74.602 74.602 0 00-17.023 4.562l-.383-.656c-2.945-5.109-9.461-6.844-14.555-3.906s-6.843 9.453-3.898 14.547l.398.703a75.339 75.339 0 00-12.453 12.438l-.688-.391c-5.094-2.938-11.609-1.203-14.554 3.889-2.938 5.109-1.195 11.625 3.898 14.562l.664.375a74.18 74.18 0 00-4.562 17.031h-.766c-5.883 0-10.648 4.766-10.648 10.656 0 5.875 4.766 10.641 10.648 10.641h.766a73.747 73.747 0 004.562 17.031l-.664.375c-5.093 2.953-6.835 9.469-3.898 14.562a10.676 10.676 0 009.234 5.328c1.812 0 3.641-.469 5.32-1.438l.688-.391a75.39 75.39 0 0012.453 12.453l-.398.688c-2.945 5.092-1.195 11.607 3.898 14.545a10.61 10.61 0 005.312 1.438c3.688 0 7.266-1.922 9.242-5.328l.383-.672a72.994 72.994 0 0017.023 4.562v.766c0 5.891 4.766 10.656 10.648 10.656s10.656-4.766 10.656-10.656v-.766a73.305 73.305 0 0017.023-4.562l.382.672a10.669 10.669 0 009.234 5.328c1.805 0 3.641-.469 5.312-1.438 5.102-2.938 6.844-9.453 3.906-14.545l-.398-.688a75.38 75.38 0 0012.445-12.453l.695.391a10.588 10.588 0 005.312 1.438c3.68 0 7.266-1.922 9.234-5.328 2.945-5.109 1.195-11.625-3.898-14.562l-.664-.375a73.374 73.374 0 004.562-17.031h.77z" fill="#434a54"/><path d="M93.413 343.498c4.164 4.156 4.164 10.891 0 15.062-4.156 4.156-10.906 4.156-15.062 0-4.164-4.172-4.164-10.906 0-15.062 4.156-4.172 10.906-4.172 15.062 0z" fill="#f5f7fa"/><path d="M501.335 361.67a10.65 10.65 0 0010.656-10.656c0-5.875-4.766-10.641-10.656-10.641h-.766a73.051 73.051 0 00-4.562-17.031l.672-.375c5.094-2.953 6.844-9.469 3.891-14.562-2.938-5.092-9.452-6.826-14.546-3.889l-.688.391a75.07 75.07 0 00-12.453-12.438l.406-.703c2.938-5.094 1.188-11.609-3.906-14.547s-11.609-1.203-14.547 3.906l-.391.656a74.668 74.668 0 00-17.016-4.562v-.766c0-5.875-4.781-10.656-10.656-10.656-5.891 0-10.655 4.781-10.655 10.656v.766a74.668 74.668 0 00-17.016 4.562l-.391-.656c-2.938-5.109-9.452-6.844-14.546-3.906s-6.844 9.453-3.906 14.547l.406.703a75.033 75.033 0 00-12.453 12.438l-.688-.391c-5.094-2.938-11.609-1.203-14.562 3.889-2.938 5.109-1.188 11.625 3.906 14.562l.656.375a75.001 75.001 0 00-4.562 17.031h-.766c-5.875 0-10.641 4.766-10.641 10.656 0 5.875 4.766 10.641 10.641 10.641h.766a74.558 74.558 0 004.562 17.031l-.656.375c-5.094 2.953-6.844 9.469-3.906 14.562a10.695 10.695 0 009.234 5.328c1.812 0 3.641-.469 5.328-1.438l.688-.391a75.122 75.122 0 0012.453 12.453l-.406.688c-2.938 5.092-1.188 11.607 3.906 14.545 1.672.969 3.5 1.438 5.312 1.438 3.687 0 7.265-1.922 9.233-5.328l.391-.672a73.056 73.056 0 0017.016 4.562v.766a10.648 10.648 0 0010.655 10.656c5.875 0 10.656-4.766 10.656-10.656v-.766a73.155 73.155 0 0017.016-4.562l.391.672a10.659 10.659 0 009.234 5.328c1.797 0 3.641-.469 5.312-1.438 5.094-2.938 6.844-9.453 3.906-14.545l-.406-.688a75.122 75.122 0 0012.453-12.453l.688.391a10.653 10.653 0 005.312 1.438c3.687 0 7.265-1.922 9.233-5.328 2.953-5.109 1.203-11.625-3.891-14.562l-.672-.375a73.8 73.8 0 004.578-17.031h.753z" fill="#434a54"/><path d="M288.293 106.878c-3.984 0-7.812-2.25-9.625-6.093-2.531-5.312-.25-11.672 5.062-14.188.531-.25 13.077-6.156 28.358-9.141 15.64-3.062 37.124-3.516 50.608 11.703 3.906 4.406 3.5 11.141-.906 15.031-4.406 3.906-11.141 3.5-15.047-.906-11.703-13.203-43.624-2.297-53.89 2.562a10.578 10.578 0 01-4.56 1.032z" fill="#ccd1d9"/><path d="M434.305 343.498c4.156 4.156 4.156 10.891 0 15.062-4.156 4.156-10.906 4.156-15.062 0-4.155-4.172-4.155-10.906 0-15.062 4.155-4.172 10.905-4.172 15.062 0z" fill="#f5f7fa"/><path d="M352.197 156.814c-5.016 0-9.484-3.546-10.453-8.64-.094-.5-2.328-12.281-3.156-24.781-.969-14.921-.422-32.624 12.594-37.218 9.734-3.438 18.641 4.297 21.562 6.844 4.312 3.734 9.234 9.109 14.641 15.984 8.858 11.25 16.14 22.812 16.452 23.296 3.125 4.984 1.625 11.562-3.344 14.688-4.984 3.141-11.562 1.641-14.702-3.344-.047-.094-25.531-12.016-23.125.516 1.109 5.781-2.672 11.359-8.453 12.468-.688.125-1.36.187-2.016.187z" fill="#434a54"/><path d="M467.617 207.767a10.628 10.628 0 00-1.359-13.406l-63.905-63.921a10.693 10.693 0 00-9.547-2.938l-85.748 16.5-8.016 56.39a10.699 10.699 0 003.016 9.031l21.312 21.296c2 2 4.703 3.125 7.531 3.125h19.484l81.107 28.421 36.125-54.498z" fill="#da4453"/><path d="M224.528 192.048c24.664.375 52.593-7.828 76.67-22.5 14.905-9.078 27.14-19.905 35.64-31.28l-113.224 21.781-94.803-4.734c25.031 15.686 63.819 36.264 95.717 36.733z" fill="#434a54"/><path d="M453.758 228.672l13.859-20.906a10.628 10.628 0 00-1.359-13.406l-63.905-63.921a10.693 10.693 0 00-9.547-2.938l-37.202 7.156 98.154 94.015z" fill="#ccd1d9"/><path d="M213.716 308.404c-17.625 0-31.96-14.326-31.96-31.951s14.335-31.953 31.96-31.953 31.96 14.328 31.96 31.953-14.336 31.951-31.96 31.951z" fill="#f5f7fa"/><path d="M306.464 237.375l-31.233 94.154-1.625-117.122-21.523-15.031 1.953 140.997h38.319c1-.562 1.984-1.125 2.953-1.703l29.374-88.56-18.218-12.735z" fill="#e6e9ed"/></svg><svg viewBox="0 0 511 511.9" id="instagram" xmlns="http://www.w3.org/2000/svg"><path d="M510.95 150.5c-1.2-27.2-5.598-45.898-11.9-62.102-6.5-17.199-16.5-32.597-29.6-45.398-12.802-13-28.302-23.102-45.302-29.5-16.296-6.3-34.898-10.7-62.097-11.898C334.648.3 325.949 0 256.449 0s-78.199.3-105.5 1.5c-27.199 1.2-45.898 5.602-62.097 11.898-17.204 6.5-32.602 16.5-45.403 29.602-13 12.8-23.097 28.3-29.5 45.3-6.3 16.302-10.699 34.9-11.898 62.098C.75 177.801.449 186.5.449 256s.301 78.2 1.5 105.5c1.2 27.2 5.602 45.898 11.903 62.102 6.5 17.199 16.597 32.597 29.597 45.398 12.801 13 28.301 23.102 45.301 29.5 16.3 6.3 34.898 10.7 62.102 11.898 27.296 1.204 36 1.5 105.5 1.5s78.199-.296 105.5-1.5c27.199-1.199 45.898-5.597 62.097-11.898a130.934 130.934 0 0074.903-74.898c6.296-16.301 10.699-34.903 11.898-62.102 1.2-27.3 1.5-36 1.5-105.5s-.102-78.2-1.3-105.5zm-46.098 209c-1.102 25-5.301 38.5-8.801 47.5-8.602 22.3-26.301 40-48.602 48.602-9 3.5-22.597 7.699-47.5 8.796-27 1.204-35.097 1.5-103.398 1.5s-76.5-.296-103.403-1.5c-25-1.097-38.5-5.296-47.5-8.796C94.551 451.5 84.45 445 76.25 436.5c-8.5-8.3-15-18.3-19.102-29.398-3.5-9-7.699-22.602-8.796-47.5-1.204-27-1.5-35.102-1.5-103.403s.296-76.5 1.5-103.398c1.097-25 5.296-38.5 8.796-47.5C61.25 94.199 67.75 84.1 76.352 75.898c8.296-8.5 18.296-15 29.398-19.097 9-3.5 22.602-7.7 47.5-8.801 27-1.2 35.102-1.5 103.398-1.5 68.403 0 76.5.3 103.403 1.5 25 1.102 38.5 5.3 47.5 8.8 11.097 4.098 21.199 10.598 29.398 19.098 8.5 8.301 15 18.301 19.102 29.403 3.5 9 7.699 22.597 8.8 47.5 1.2 27 1.5 35.097 1.5 103.398s-.3 76.301-1.5 103.301zm0 0"/><path d="M256.45 124.5c-72.598 0-131.5 58.898-131.5 131.5s58.902 131.5 131.5 131.5c72.6 0 131.5-58.898 131.5-131.5s-58.9-131.5-131.5-131.5zm0 216.8c-47.098 0-85.302-38.198-85.302-85.3s38.204-85.3 85.301-85.3c47.102 0 85.301 38.198 85.301 85.3s-38.2 85.3-85.3 85.3zm0 0M423.852 119.3c0 16.954-13.747 30.7-30.704 30.7-16.953 0-30.699-13.746-30.699-30.7 0-16.956 13.746-30.698 30.7-30.698 16.956 0 30.703 13.742 30.703 30.699zm0 0"/></svg><svg viewBox="0 0 512 512" id="mail" xmlns="http://www.w3.org/2000/svg"><path d="M467 76H45C20.137 76 0 96.262 0 121v270c0 24.885 20.285 45 45 45h422c24.655 0 45-20.03 45-45V121c0-24.694-20.057-45-45-45zm-6.302 30L287.82 277.967c-8.5 8.5-19.8 13.18-31.82 13.18s-23.32-4.681-31.848-13.208L51.302 106h409.396zM30 384.894V127.125L159.638 256.08 30 384.894zM51.321 406l129.587-128.763 22.059 21.943c14.166 14.166 33 21.967 53.033 21.967s38.867-7.801 53.005-21.939l22.087-21.971L460.679 406H51.321zM482 384.894L352.362 256.08 482 127.125v257.769z"/></svg><svg viewBox="0 0 512 512" id="twitter" xmlns="http://www.w3.org/2000/svg"><path d="M512 97.248c-19.04 8.352-39.328 13.888-60.48 16.576 21.76-12.992 38.368-33.408 46.176-58.016-20.288 12.096-42.688 20.64-66.56 25.408C411.872 60.704 384.416 48 354.464 48c-58.112 0-104.896 47.168-104.896 104.992 0 8.32.704 16.32 2.432 23.936-87.264-4.256-164.48-46.08-216.352-109.792-9.056 15.712-14.368 33.696-14.368 53.056 0 36.352 18.72 68.576 46.624 87.232-16.864-.32-33.408-5.216-47.424-12.928v1.152c0 51.008 36.384 93.376 84.096 103.136-8.544 2.336-17.856 3.456-27.52 3.456-6.72 0-13.504-.384-19.872-1.792 13.6 41.568 52.192 72.128 98.08 73.12-35.712 27.936-81.056 44.768-130.144 44.768-8.608 0-16.864-.384-25.12-1.44C46.496 446.88 101.6 464 161.024 464c193.152 0 298.752-160 298.752-298.688 0-4.64-.16-9.12-.384-13.568 20.832-14.784 38.336-33.248 52.608-54.496z"/></svg></svg>